<mxfile host="app.diagrams.net" modified="2023-11-21T13:45:08.285Z" agent="Mozilla/5.0 (Macintosh; Intel Mac OS X 10_15_7) AppleWebKit/537.36 (KHTML, like Gecko) Chrome/119.0.0.0 Safari/537.36 Edg/119.0.0.0" etag="G9ZHvMlnPurAylOV5A76" version="22.1.3" type="github">
  <diagram id="C5RBs43oDa-KdzZeNtuy" name="Page-1">
    <mxGraphModel dx="987" dy="607" grid="1" gridSize="10" guides="1" tooltips="1" connect="1" arrows="1" fold="1" page="1" pageScale="1" pageWidth="827" pageHeight="1169" math="0" shadow="0">
      <root>
        <mxCell id="WIyWlLk6GJQsqaUBKTNV-0" />
        <mxCell id="WIyWlLk6GJQsqaUBKTNV-1" parent="WIyWlLk6GJQsqaUBKTNV-0" />
        <mxCell id="3oK7ycQVF1ALaJWgRaA4-2" value="" style="edgeStyle=orthogonalEdgeStyle;rounded=0;orthogonalLoop=1;jettySize=auto;html=1;" edge="1" parent="WIyWlLk6GJQsqaUBKTNV-1" source="3oK7ycQVF1ALaJWgRaA4-0" target="3oK7ycQVF1ALaJWgRaA4-1">
          <mxGeometry relative="1" as="geometry" />
        </mxCell>
        <mxCell id="3oK7ycQVF1ALaJWgRaA4-0" value="ad_click归因开始" style="rounded=0;whiteSpace=wrap;html=1;" vertex="1" parent="WIyWlLk6GJQsqaUBKTNV-1">
          <mxGeometry x="354" y="110" width="120" height="60" as="geometry" />
        </mxCell>
        <mxCell id="3oK7ycQVF1ALaJWgRaA4-4" value="" style="edgeStyle=orthogonalEdgeStyle;rounded=0;orthogonalLoop=1;jettySize=auto;html=1;" edge="1" parent="WIyWlLk6GJQsqaUBKTNV-1" source="3oK7ycQVF1ALaJWgRaA4-1" target="3oK7ycQVF1ALaJWgRaA4-3">
          <mxGeometry relative="1" as="geometry" />
        </mxCell>
        <mxCell id="3oK7ycQVF1ALaJWgRaA4-1" value="&lt;div style=&quot;font-family: &amp;quot;.AppleSystemUIFont&amp;quot;; font-size: 12pt;&quot;&gt;&lt;pre&gt;&lt;pre style=&quot;border-color: var(--border-color);&quot;&gt;请求ads&lt;span style=&quot;border-color: var(--border-color); color: rgb(0, 128, 0);&quot;&gt;服务&lt;/span&gt;&lt;/pre&gt;&lt;/pre&gt;&lt;/div&gt;" style="rounded=0;html=1;labelBackgroundColor=none;whiteSpace=wrap;align=center;" vertex="1" parent="WIyWlLk6GJQsqaUBKTNV-1">
          <mxGeometry x="312" y="230" width="204" height="70" as="geometry" />
        </mxCell>
        <mxCell id="3oK7ycQVF1ALaJWgRaA4-3" value="&lt;pre style=&quot;border-color: var(--border-color); font-size: 12px; font-style: normal; font-variant-ligatures: normal; font-variant-caps: normal; font-weight: 400; letter-spacing: normal; orphans: 2; text-align: left; text-indent: 0px; text-transform: none; widows: 2; word-spacing: 0px; -webkit-text-stroke-width: 0px; background-color: rgb(251, 251, 251); text-decoration-thickness: initial; text-decoration-style: initial; text-decoration-color: initial; line-height: 100%;&quot;&gt;&lt;font color=&quot;#008000&quot;&gt;获取用户7天内&lt;/font&gt;&lt;/pre&gt;&lt;pre style=&quot;border-color: var(--border-color); font-size: 12px; font-style: normal; font-variant-ligatures: normal; font-variant-caps: normal; font-weight: 400; letter-spacing: normal; orphans: 2; text-align: left; text-indent: 0px; text-transform: none; widows: 2; word-spacing: 0px; -webkit-text-stroke-width: 0px; background-color: rgb(251, 251, 251); text-decoration-thickness: initial; text-decoration-style: initial; text-decoration-color: initial; line-height: 100%;&quot;&gt;&lt;font color=&quot;#008000&quot;&gt;是否有埋点号&lt;/font&gt;&lt;/pre&gt;&lt;pre style=&quot;border-color: var(--border-color); font-size: 12px; font-style: normal; font-variant-ligatures: normal; font-variant-caps: normal; font-weight: 400; letter-spacing: normal; orphans: 2; text-align: left; text-indent: 0px; text-transform: none; widows: 2; word-spacing: 0px; -webkit-text-stroke-width: 0px; background-color: rgb(251, 251, 251); text-decoration-thickness: initial; text-decoration-style: initial; text-decoration-color: initial; line-height: 100%;&quot;&gt;&lt;font color=&quot;#008000&quot;&gt;为1002163的记录&lt;/font&gt;&lt;/pre&gt;" style="html=1;rounded=0;labelBackgroundColor=none;spacing=0;fontSize=12;whiteSpace=wrap;" vertex="1" parent="WIyWlLk6GJQsqaUBKTNV-1">
          <mxGeometry x="638" y="202.5" width="120" height="125" as="geometry" />
        </mxCell>
        <mxCell id="3oK7ycQVF1ALaJWgRaA4-5" value="" style="whiteSpace=wrap;html=1;aspect=fixed;" vertex="1" parent="WIyWlLk6GJQsqaUBKTNV-1">
          <mxGeometry x="110" y="350" width="80" height="80" as="geometry" />
        </mxCell>
        <mxCell id="3oK7ycQVF1ALaJWgRaA4-7" style="edgeStyle=orthogonalEdgeStyle;rounded=0;orthogonalLoop=1;jettySize=auto;html=1;entryX=1;entryY=0.5;entryDx=0;entryDy=0;" edge="1" parent="WIyWlLk6GJQsqaUBKTNV-1" source="3oK7ycQVF1ALaJWgRaA4-6" target="3oK7ycQVF1ALaJWgRaA4-5">
          <mxGeometry relative="1" as="geometry" />
        </mxCell>
        <mxCell id="3oK7ycQVF1ALaJWgRaA4-8" value="是" style="edgeLabel;html=1;align=center;verticalAlign=middle;resizable=0;points=[];" vertex="1" connectable="0" parent="3oK7ycQVF1ALaJWgRaA4-7">
          <mxGeometry x="-0.047" y="-2" relative="1" as="geometry">
            <mxPoint as="offset" />
          </mxGeometry>
        </mxCell>
        <mxCell id="3oK7ycQVF1ALaJWgRaA4-6" value="是否有埋点记录" style="rhombus;whiteSpace=wrap;html=1;" vertex="1" parent="WIyWlLk6GJQsqaUBKTNV-1">
          <mxGeometry x="332" y="340" width="164" height="100" as="geometry" />
        </mxCell>
      </root>
    </mxGraphModel>
  </diagram>
</mxfile>
